<mxfile host="Electron" agent="Mozilla/5.0 (Windows NT 10.0; Win64; x64) AppleWebKit/537.36 (KHTML, like Gecko) draw.io/28.1.2 Chrome/138.0.7204.243 Electron/37.4.0 Safari/537.36" version="28.1.2">
  <diagram name="Page-1" id="KZ527Z2WeU62SNMz53_8">
    <mxGraphModel dx="2066" dy="1209" grid="1" gridSize="10" guides="1" tooltips="1" connect="1" arrows="1" fold="1" page="1" pageScale="1" pageWidth="1920" pageHeight="1200" math="0" shadow="0">
      <root>
        <mxCell id="0" />
        <mxCell id="1" parent="0" />
        <mxCell id="5AL0kcftVzIRumSLT7eu-15" value="" style="rounded=0;whiteSpace=wrap;html=1;fillColor=none;strokeWidth=2;strokeColor=#d6b656;" vertex="1" parent="1">
          <mxGeometry x="1040" y="320" width="240" height="670" as="geometry" />
        </mxCell>
        <mxCell id="ws_PYhOWuExP3ZUZ7Aq1-1" value="" style="rounded=0;whiteSpace=wrap;html=1;fillColor=none;dashed=1;strokeColor=light-dark(#989090,#EDEDED);strokeWidth=1;" parent="1" vertex="1">
          <mxGeometry x="50" y="240" width="230" height="800" as="geometry" />
        </mxCell>
        <mxCell id="ws_PYhOWuExP3ZUZ7Aq1-4" value="&lt;font style=&quot;color: rgb(143, 143, 143);&quot;&gt;&lt;b&gt;Sources&lt;/b&gt;&lt;/font&gt;" style="rounded=0;whiteSpace=wrap;html=1;strokeColor=none;fontSize=24;" parent="1" vertex="1">
          <mxGeometry x="135" y="220" width="100" height="40" as="geometry" />
        </mxCell>
        <mxCell id="ws_PYhOWuExP3ZUZ7Aq1-7" value="&lt;font style=&quot;color: rgb(143, 143, 143);&quot;&gt;&lt;span&gt;Data Warehouse&lt;/span&gt;&lt;/font&gt;" style="rounded=0;whiteSpace=wrap;html=1;strokeColor=none;fontSize=24;fontStyle=1" parent="1" vertex="1">
          <mxGeometry x="690" y="220" width="200" height="40" as="geometry" />
        </mxCell>
        <mxCell id="ws_PYhOWuExP3ZUZ7Aq1-6" value="" style="rounded=0;whiteSpace=wrap;html=1;fillColor=none;dashed=1;strokeColor=light-dark(#514d4d, #ededed);" parent="1" vertex="1">
          <mxGeometry x="325" y="240" width="995" height="800" as="geometry" />
        </mxCell>
        <mxCell id="ws_PYhOWuExP3ZUZ7Aq1-8" value="" style="rounded=0;whiteSpace=wrap;html=1;fillColor=none;dashed=1;strokeColor=light-dark(#514d4d, #ededed);" parent="1" vertex="1">
          <mxGeometry x="1400" y="240" width="240" height="800" as="geometry" />
        </mxCell>
        <mxCell id="ws_PYhOWuExP3ZUZ7Aq1-9" value="&lt;font style=&quot;font-size: 24px; color: rgb(143, 143, 143);&quot;&gt;&lt;b&gt;Consume&lt;/b&gt;&lt;/font&gt;" style="rounded=0;whiteSpace=wrap;html=1;strokeColor=none;" parent="1" vertex="1">
          <mxGeometry x="1455" y="220" width="130" height="40" as="geometry" />
        </mxCell>
        <mxCell id="ws_PYhOWuExP3ZUZ7Aq1-10" value="&lt;font style=&quot;font-size: 20px;&quot;&gt;&lt;b&gt;Bronze Layer&lt;/b&gt;&lt;/font&gt;" style="rounded=0;whiteSpace=wrap;html=1;fillColor=#ffe6cc;strokeColor=#d79b00;" parent="1" vertex="1">
          <mxGeometry x="400" y="280" width="240" height="40" as="geometry" />
        </mxCell>
        <mxCell id="ws_PYhOWuExP3ZUZ7Aq1-12" value="" style="rounded=0;whiteSpace=wrap;html=1;fillColor=none;strokeWidth=2;strokeColor=#d79b00;" parent="1" vertex="1">
          <mxGeometry x="400" y="330" width="240" height="670" as="geometry" />
        </mxCell>
        <mxCell id="ws_PYhOWuExP3ZUZ7Aq1-13" value="&lt;font style=&quot;font-size: 20px;&quot;&gt;Silver Layer&lt;/font&gt;" style="rounded=0;whiteSpace=wrap;html=1;fillColor=#f5f5f5;strokeColor=#666666;gradientColor=#b3b3b3;fontStyle=1" parent="1" vertex="1">
          <mxGeometry x="720" y="280" width="240" height="40" as="geometry" />
        </mxCell>
        <mxCell id="ws_PYhOWuExP3ZUZ7Aq1-14" value="" style="rounded=0;whiteSpace=wrap;html=1;fillColor=none;strokeWidth=2;gradientColor=#b3b3b3;strokeColor=light-dark(#969696, #959595);" parent="1" vertex="1">
          <mxGeometry x="720" y="330" width="240" height="670" as="geometry" />
        </mxCell>
        <mxCell id="ws_PYhOWuExP3ZUZ7Aq1-15" value="&lt;font style=&quot;font-size: 20px;&quot;&gt;Gold Layer&lt;/font&gt;" style="rounded=0;whiteSpace=wrap;html=1;fillColor=#fff2cc;strokeColor=#d6b656;fontStyle=1" parent="1" vertex="1">
          <mxGeometry x="1040" y="280" width="240" height="30" as="geometry" />
        </mxCell>
        <mxCell id="ws_PYhOWuExP3ZUZ7Aq1-23" value="&lt;font style=&quot;font-size: 18px;&quot;&gt;&lt;b&gt;CRM&lt;/b&gt;&lt;/font&gt;" style="image;aspect=fixed;html=1;points=[];align=center;fontSize=12;image=img/lib/azure2/general/Folder_Blank.svg;" parent="1" vertex="1">
          <mxGeometry x="120" y="434" width="69" height="56.00000000000001" as="geometry" />
        </mxCell>
        <mxCell id="ws_PYhOWuExP3ZUZ7Aq1-27" value="" style="image;aspect=fixed;html=1;points=[];align=center;fontSize=12;image=img/lib/azure2/general/File.svg;" parent="1" vertex="1">
          <mxGeometry x="180" y="440" width="40.58" height="50" as="geometry" />
        </mxCell>
        <mxCell id="ws_PYhOWuExP3ZUZ7Aq1-31" value="&lt;font style=&quot;font-size: 18px;&quot;&gt;&lt;b&gt;ERP&lt;/b&gt;&lt;/font&gt;" style="image;aspect=fixed;html=1;points=[];align=center;fontSize=12;image=img/lib/azure2/general/Folder_Blank.svg;" parent="1" vertex="1">
          <mxGeometry x="120" y="552" width="69" height="56.00000000000001" as="geometry" />
        </mxCell>
        <mxCell id="ws_PYhOWuExP3ZUZ7Aq1-32" value="" style="image;aspect=fixed;html=1;points=[];align=center;fontSize=12;image=img/lib/azure2/general/File.svg;" parent="1" vertex="1">
          <mxGeometry x="180.00000000000003" y="560" width="40.58" height="50" as="geometry" />
        </mxCell>
        <mxCell id="ws_PYhOWuExP3ZUZ7Aq1-34" value="&lt;font&gt;&lt;b&gt;High Level Architecture&lt;/b&gt;&lt;/font&gt;" style="text;html=1;align=center;verticalAlign=middle;resizable=0;points=[];autosize=1;strokeColor=none;fillColor=none;fontSize=37;" parent="1" vertex="1">
          <mxGeometry x="19.99999999999998" y="20" width="440" height="60" as="geometry" />
        </mxCell>
        <mxCell id="ws_PYhOWuExP3ZUZ7Aq1-47" value="&lt;font style=&quot;font-size: 14px;&quot;&gt;&lt;b style=&quot;&quot;&gt;Object Type&lt;/b&gt;:&amp;nbsp; CSV Files&lt;/font&gt;&lt;div&gt;&lt;font style=&quot;font-size: 14px;&quot;&gt;&lt;br&gt;&lt;/font&gt;&lt;/div&gt;&lt;div&gt;&lt;font style=&quot;font-size: 14px;&quot;&gt;&lt;b style=&quot;&quot;&gt;Interface&lt;/b&gt;:&amp;nbsp; Files in Folders&lt;/font&gt;&lt;/div&gt;" style="rounded=0;whiteSpace=wrap;html=1;fillColor=none;strokeColor=none;" parent="1" vertex="1">
          <mxGeometry x="80" y="710" width="180" height="60" as="geometry" />
        </mxCell>
        <mxCell id="ws_PYhOWuExP3ZUZ7Aq1-53" value="" style="endArrow=none;html=1;rounded=0;strokeColor=#7C7C7C;strokeWidth=2;" parent="1" edge="1">
          <mxGeometry relative="1" as="geometry">
            <mxPoint x="90" y="680" as="sourcePoint" />
            <mxPoint x="250" y="680" as="targetPoint" />
          </mxGeometry>
        </mxCell>
        <mxCell id="ws_PYhOWuExP3ZUZ7Aq1-54" value="" style="resizable=0;html=1;whiteSpace=wrap;align=right;verticalAlign=bottom;" parent="ws_PYhOWuExP3ZUZ7Aq1-53" connectable="0" vertex="1">
          <mxGeometry x="1" relative="1" as="geometry" />
        </mxCell>
        <mxCell id="ws_PYhOWuExP3ZUZ7Aq1-56" value="" style="html=1;verticalLabelPosition=bottom;align=center;labelBackgroundColor=#ffffff;verticalAlign=top;strokeWidth=2;strokeColor=#d79b00;shadow=0;dashed=0;shape=mxgraph.ios7.icons.data;fontSize=24;fillColor=#ffe6cc;" parent="1" vertex="1">
          <mxGeometry x="490" y="500" width="60" height="70" as="geometry" />
        </mxCell>
        <mxCell id="ws_PYhOWuExP3ZUZ7Aq1-59" value="" style="html=1;verticalLabelPosition=bottom;align=center;labelBackgroundColor=#ffffff;verticalAlign=top;strokeWidth=2;strokeColor=#666666;shadow=0;dashed=0;shape=mxgraph.ios7.icons.data;fillColor=#f5f5f5;gradientColor=#b3b3b3;" parent="1" vertex="1">
          <mxGeometry x="808.75" y="500" width="62.5" height="70" as="geometry" />
        </mxCell>
        <mxCell id="ws_PYhOWuExP3ZUZ7Aq1-76" value="" style="shape=singleArrow;whiteSpace=wrap;html=1;fillColor=#dae8fc;strokeColor=#6c8ebf;gradientColor=#7ea6e0;" parent="1" vertex="1">
          <mxGeometry x="270" y="500" width="140" height="55" as="geometry" />
        </mxCell>
        <mxCell id="ws_PYhOWuExP3ZUZ7Aq1-78" value="" style="shape=singleArrow;whiteSpace=wrap;html=1;fillColor=#dae8fc;gradientColor=#7ea6e0;strokeColor=#6c8ebf;" parent="1" vertex="1">
          <mxGeometry x="940" y="520" width="120" height="50" as="geometry" />
        </mxCell>
        <mxCell id="ws_PYhOWuExP3ZUZ7Aq1-77" value="" style="shape=singleArrow;whiteSpace=wrap;html=1;fillColor=#dae8fc;gradientColor=#7ea6e0;strokeColor=#6c8ebf;" parent="1" vertex="1">
          <mxGeometry x="620" y="510" width="120" height="50" as="geometry" />
        </mxCell>
        <mxCell id="ws_PYhOWuExP3ZUZ7Aq1-79" value="" style="shape=singleArrow;whiteSpace=wrap;html=1;arrowWidth=0.3247058823529369;arrowSize=0.22394957983193212;fillColor=#dae8fc;gradientColor=#7ea6e0;strokeColor=#6c8ebf;" parent="1" vertex="1">
          <mxGeometry x="1270" y="507" width="140" height="45" as="geometry" />
        </mxCell>
        <mxCell id="ws_PYhOWuExP3ZUZ7Aq1-86" value="" style="endArrow=none;html=1;rounded=0;strokeWidth=2;strokeColor=light-dark(#7e7c7c, #999999);" parent="1" edge="1">
          <mxGeometry relative="1" as="geometry">
            <mxPoint x="440" y="640" as="sourcePoint" />
            <mxPoint x="600" y="640" as="targetPoint" />
          </mxGeometry>
        </mxCell>
        <mxCell id="ws_PYhOWuExP3ZUZ7Aq1-87" value="" style="resizable=0;html=1;whiteSpace=wrap;align=right;verticalAlign=bottom;" parent="ws_PYhOWuExP3ZUZ7Aq1-86" connectable="0" vertex="1">
          <mxGeometry x="1" relative="1" as="geometry" />
        </mxCell>
        <mxCell id="ws_PYhOWuExP3ZUZ7Aq1-89" value="" style="endArrow=none;html=1;rounded=0;strokeColor=light-dark(#707070, #ededed);strokeWidth=2;" parent="1" edge="1">
          <mxGeometry relative="1" as="geometry">
            <mxPoint x="742.5" y="639.5" as="sourcePoint" />
            <mxPoint x="902.5" y="639.5" as="targetPoint" />
            <Array as="points" />
          </mxGeometry>
        </mxCell>
        <mxCell id="ws_PYhOWuExP3ZUZ7Aq1-90" value="" style="resizable=0;html=1;whiteSpace=wrap;align=right;verticalAlign=bottom;" parent="ws_PYhOWuExP3ZUZ7Aq1-89" connectable="0" vertex="1">
          <mxGeometry x="1" relative="1" as="geometry" />
        </mxCell>
        <mxCell id="ws_PYhOWuExP3ZUZ7Aq1-99" value="&lt;div style=&quot;text-align: left;&quot;&gt;&lt;b style=&quot;background-color: transparent; color: light-dark(rgb(0, 0, 0), rgb(255, 255, 255)); font-size: 15px;&quot;&gt;Object Type&lt;/b&gt;&lt;span style=&quot;background-color: transparent; color: light-dark(rgb(0, 0, 0), rgb(255, 255, 255)); font-size: 15px;&quot;&gt;: Tables&lt;/span&gt;&lt;br&gt;&lt;span style=&quot;font-size: 15px;&quot;&gt;&lt;b&gt;&lt;br&gt;&lt;/b&gt;&lt;/span&gt;&lt;b style=&quot;background-color: transparent; color: light-dark(rgb(0, 0, 0), rgb(255, 255, 255)); font-size: 15px;&quot;&gt;Load&lt;/b&gt;&lt;span style=&quot;background-color: transparent; color: light-dark(rgb(0, 0, 0), rgb(255, 255, 255)); font-size: 15px;&quot;&gt;:&lt;/span&gt;&lt;span style=&quot;font-size: 15px;&quot;&gt;&lt;br&gt;&lt;ul&gt;&lt;li&gt;&lt;span style=&quot;background-color: transparent; color: light-dark(rgb(0, 0, 0), rgb(255, 255, 255)); font-size: 15px;&quot;&gt;Batch Processing&lt;/span&gt;&lt;/li&gt;&lt;li&gt;&lt;span style=&quot;background-color: transparent; color: light-dark(rgb(0, 0, 0), rgb(255, 255, 255)); font-size: 15px;&quot;&gt;Full Load&lt;/span&gt;&lt;/li&gt;&lt;li&gt;&lt;span style=&quot;background-color: transparent; color: light-dark(rgb(0, 0, 0), rgb(255, 255, 255)); font-size: 15px; text-align: center;&quot;&gt;Truncate &amp;amp; Insert&lt;/span&gt;&lt;span style=&quot;background-color: transparent; color: light-dark(rgb(0, 0, 0), rgb(255, 255, 255)); text-align: center; font-size: 15px;&quot;&gt;&amp;nbsp;&lt;/span&gt;&lt;/li&gt;&lt;/ul&gt;&lt;/span&gt;&lt;span style=&quot;font-size: 15px;&quot;&gt;&lt;b&gt;&lt;br&gt;&lt;/b&gt;&lt;/span&gt;&lt;span style=&quot;background-color: transparent; color: light-dark(rgb(0, 0, 0), rgb(255, 255, 255)); text-align: center; font-size: 15px;&quot;&gt;No&lt;/span&gt;&lt;b style=&quot;background-color: transparent; color: light-dark(rgb(0, 0, 0), rgb(255, 255, 255)); text-align: center; font-size: 15px;&quot;&gt; Transformations:&lt;/b&gt;&lt;br&gt;&lt;span style=&quot;font-size: 15px;&quot;&gt;&lt;b&gt;&lt;br&gt;&lt;/b&gt;&lt;/span&gt;&lt;b style=&quot;background-color: transparent; color: light-dark(rgb(0, 0, 0), rgb(255, 255, 255)); font-size: 15px;&quot;&gt;Data Model&lt;/b&gt;&lt;span style=&quot;background-color: transparent; color: light-dark(rgb(0, 0, 0), rgb(255, 255, 255)); font-size: 15px;&quot;&gt;: None (as-is)&lt;/span&gt;&lt;/div&gt;" style="text;html=1;align=center;verticalAlign=middle;whiteSpace=wrap;rounded=0;" parent="1" vertex="1">
          <mxGeometry x="430" y="660" width="180" height="230" as="geometry" />
        </mxCell>
        <mxCell id="ws_PYhOWuExP3ZUZ7Aq1-107" value="&lt;font&gt;&lt;b&gt;Raw Data&amp;nbsp;&lt;/b&gt;&lt;/font&gt;" style="text;html=1;align=center;verticalAlign=middle;whiteSpace=wrap;rounded=0;fontSize=16;" parent="1" vertex="1">
          <mxGeometry x="450" y="580" width="120" height="30" as="geometry" />
        </mxCell>
        <mxCell id="ws_PYhOWuExP3ZUZ7Aq1-108" value="&lt;font style=&quot;font-size: 16px;&quot;&gt;&lt;b style=&quot;&quot;&gt;Cleaned, Standardized&amp;nbsp; &amp;nbsp; &amp;nbsp; &amp;nbsp; &amp;nbsp; &amp;nbsp; &amp;nbsp; &amp;nbsp; &amp;nbsp; Data&lt;/b&gt;&lt;/font&gt;" style="text;html=1;align=left;verticalAlign=middle;whiteSpace=wrap;rounded=0;" parent="1" vertex="1">
          <mxGeometry x="740" y="585" width="190" height="30" as="geometry" />
        </mxCell>
        <mxCell id="ws_PYhOWuExP3ZUZ7Aq1-114" value="&lt;font style=&quot;font-size: 15px;&quot;&gt;&lt;b&gt;Object Type&lt;/b&gt;: Tables&lt;br&gt;&lt;br&gt;&lt;b&gt;Load:&lt;/b&gt;&lt;/font&gt;&lt;div&gt;&lt;ul&gt;&lt;li&gt;&lt;span style=&quot;font-size: 15px; background-color: transparent; color: light-dark(rgb(0, 0, 0), rgb(255, 255, 255));&quot;&gt;Batch Processing&lt;/span&gt;&lt;/li&gt;&lt;li&gt;&lt;font style=&quot;font-size: 15px;&quot;&gt;Full Load&lt;/font&gt;&lt;/li&gt;&lt;li&gt;&lt;font style=&quot;font-size: 15px;&quot;&gt;Truncate &amp;amp; Insert&lt;/font&gt;&lt;/li&gt;&lt;/ul&gt;&lt;/div&gt;&lt;div&gt;&lt;font style=&quot;font-size: 15px;&quot;&gt;&lt;br&gt;&lt;/font&gt;&lt;/div&gt;&lt;div&gt;&lt;font style=&quot;font-size: 15px;&quot;&gt;&lt;b&gt;Transformations:&lt;/b&gt;&lt;br&gt;&lt;/font&gt;&lt;/div&gt;&lt;div&gt;&lt;ul&gt;&lt;li&gt;&lt;font style=&quot;font-size: 15px;&quot;&gt;Data Cleansing&lt;/font&gt;&lt;/li&gt;&lt;li&gt;&lt;font style=&quot;font-size: 15px;&quot;&gt;Data Standardization&lt;/font&gt;&lt;/li&gt;&lt;li&gt;&lt;font style=&quot;font-size: 15px;&quot;&gt;Data Normalization&lt;/font&gt;&lt;/li&gt;&lt;li&gt;&lt;font style=&quot;font-size: 15px;&quot;&gt;Derived Columns&lt;/font&gt;&lt;/li&gt;&lt;li&gt;&lt;font style=&quot;font-size: 15px;&quot;&gt;Data Enrichment&lt;/font&gt;&lt;/li&gt;&lt;/ul&gt;&lt;div&gt;&lt;font style=&quot;font-size: 15px;&quot;&gt;&lt;br&gt;&lt;b&gt;Data Model&lt;/b&gt;: None (as-is)&lt;/font&gt;&lt;/div&gt;&lt;/div&gt;" style="text;whiteSpace=wrap;html=1;" parent="1" vertex="1">
          <mxGeometry x="740" y="670" width="200" height="320" as="geometry" />
        </mxCell>
        <mxCell id="ws_PYhOWuExP3ZUZ7Aq1-116" value="" style="image;aspect=fixed;html=1;points=[];align=center;fontSize=12;image=img/lib/azure2/power_platform/PowerBI.svg;" parent="1" vertex="1">
          <mxGeometry x="1494.5" y="320" width="51" height="68" as="geometry" />
        </mxCell>
        <mxCell id="ws_PYhOWuExP3ZUZ7Aq1-123" value="" style="points=[];aspect=fixed;html=1;align=center;shadow=0;dashed=0;fillColor=#FF6A00;strokeColor=none;shape=mxgraph.alibaba_cloud.machine_learning;" parent="1" vertex="1">
          <mxGeometry x="1495.1" y="820" width="49.8" height="50.099999999999994" as="geometry" />
        </mxCell>
        <mxCell id="ws_PYhOWuExP3ZUZ7Aq1-124" value="&lt;font style=&quot;font-size: 15px;&quot;&gt;&lt;b&gt;Machine Learning&lt;/b&gt;&lt;/font&gt;" style="text;html=1;align=center;verticalAlign=middle;whiteSpace=wrap;rounded=0;" parent="1" vertex="1">
          <mxGeometry x="1450" y="880" width="140" height="30" as="geometry" />
        </mxCell>
        <mxCell id="ws_PYhOWuExP3ZUZ7Aq1-125" value="&lt;font style=&quot;font-size: 15px;&quot;&gt;&lt;b&gt;BI &amp;amp; Reporting&lt;/b&gt;&lt;/font&gt;" style="text;html=1;align=center;verticalAlign=middle;whiteSpace=wrap;rounded=0;" parent="1" vertex="1">
          <mxGeometry x="1440" y="410" width="140" height="30" as="geometry" />
        </mxCell>
        <mxCell id="ws_PYhOWuExP3ZUZ7Aq1-126" value="&lt;b&gt;&lt;font style=&quot;font-size: 15px;&quot;&gt;Ad-Hoc SQL Queries&lt;/font&gt;&lt;/b&gt;" style="text;html=1;align=center;verticalAlign=middle;whiteSpace=wrap;rounded=0;" parent="1" vertex="1">
          <mxGeometry x="1440" y="625" width="160" height="30" as="geometry" />
        </mxCell>
        <mxCell id="5AL0kcftVzIRumSLT7eu-16" value="&lt;font style=&quot;font-size: 15px;&quot;&gt;&lt;b&gt;Object Type&lt;/b&gt;: Views&lt;br&gt;&lt;br&gt;No&lt;b&gt; Load:&lt;/b&gt;&lt;/font&gt;&lt;div&gt;&lt;span style=&quot;font-size: 15px;&quot;&gt;&lt;b&gt;&lt;br&gt;&lt;/b&gt;&lt;/span&gt;&lt;/div&gt;&lt;div&gt;&lt;span style=&quot;font-size: 15px;&quot;&gt;&lt;b&gt;Transformations:&lt;br&gt;&lt;/b&gt;&lt;/span&gt;&lt;div&gt;&lt;ul&gt;&lt;li&gt;&lt;span style=&quot;background-color: transparent; color: light-dark(rgb(0, 0, 0), rgb(255, 255, 255)); font-size: 15px;&quot;&gt;Data Integrations&lt;/span&gt;&lt;/li&gt;&lt;li&gt;&lt;span style=&quot;font-size: 15px; background-color: transparent; color: light-dark(rgb(0, 0, 0), rgb(255, 255, 255));&quot;&gt;Aggregations&lt;/span&gt;&lt;/li&gt;&lt;li&gt;&lt;span style=&quot;font-size: 15px; background-color: transparent; color: light-dark(rgb(0, 0, 0), rgb(255, 255, 255));&quot;&gt;Business Logics&lt;/span&gt;&lt;/li&gt;&lt;/ul&gt;&lt;/div&gt;&lt;div&gt;&lt;font style=&quot;font-size: 15px;&quot;&gt;&lt;br&gt;&lt;/font&gt;&lt;/div&gt;&lt;div&gt;&lt;font style=&quot;font-size: 15px;&quot;&gt;&lt;b&gt;Data Model:&lt;/b&gt;&lt;br&gt;&lt;/font&gt;&lt;/div&gt;&lt;div&gt;&lt;ul&gt;&lt;li&gt;&lt;span style=&quot;font-size: 15px; background-color: transparent; color: light-dark(rgb(0, 0, 0), rgb(255, 255, 255));&quot;&gt;Star Schema&lt;/span&gt;&lt;/li&gt;&lt;li&gt;&lt;span style=&quot;font-size: 15px; background-color: transparent; color: light-dark(rgb(0, 0, 0), rgb(255, 255, 255));&quot;&gt;Flat Table&lt;/span&gt;&lt;/li&gt;&lt;li&gt;&lt;span style=&quot;font-size: 15px; background-color: transparent; color: light-dark(rgb(0, 0, 0), rgb(255, 255, 255));&quot;&gt;&amp;nbsp;Aggregated Table&lt;/span&gt;&lt;/li&gt;&lt;/ul&gt;&lt;/div&gt;&lt;div&gt;&lt;br&gt;&lt;/div&gt;&lt;/div&gt;" style="text;whiteSpace=wrap;html=1;" vertex="1" parent="1">
          <mxGeometry x="1080" y="670" width="200" height="320" as="geometry" />
        </mxCell>
        <mxCell id="5AL0kcftVzIRumSLT7eu-17" value="" style="html=1;verticalLabelPosition=bottom;align=center;labelBackgroundColor=#ffffff;verticalAlign=top;strokeWidth=2;strokeColor=#d6b656;shadow=0;dashed=0;shape=mxgraph.ios7.icons.data;fillColor=#fff2cc;" vertex="1" parent="1">
          <mxGeometry x="1130" y="500" width="60" height="70" as="geometry" />
        </mxCell>
        <mxCell id="5AL0kcftVzIRumSLT7eu-18" value="&lt;font style=&quot;font-size: 16px;&quot;&gt;&lt;b style=&quot;&quot;&gt;Business- Ready Data&lt;/b&gt;&lt;/font&gt;" style="text;html=1;align=left;verticalAlign=middle;whiteSpace=wrap;rounded=0;" vertex="1" parent="1">
          <mxGeometry x="1070" y="585" width="190" height="30" as="geometry" />
        </mxCell>
        <mxCell id="5AL0kcftVzIRumSLT7eu-23" value="" style="endArrow=none;html=1;rounded=0;strokeWidth=2;strokeColor=light-dark(#7c7979, #ededed);" edge="1" parent="1">
          <mxGeometry relative="1" as="geometry">
            <mxPoint x="1080" y="639.5" as="sourcePoint" />
            <mxPoint x="1240" y="639.5" as="targetPoint" />
            <Array as="points" />
          </mxGeometry>
        </mxCell>
        <mxCell id="5AL0kcftVzIRumSLT7eu-24" value="" style="resizable=0;html=1;whiteSpace=wrap;align=right;verticalAlign=bottom;" connectable="0" vertex="1" parent="5AL0kcftVzIRumSLT7eu-23">
          <mxGeometry x="1" relative="1" as="geometry" />
        </mxCell>
      </root>
    </mxGraphModel>
  </diagram>
</mxfile>
